<mxfile host="app.diagrams.net" modified="2021-04-17T06:49:34.786Z" agent="5.0 (X11; Linux x86_64) AppleWebKit/537.36 (KHTML, like Gecko) Chrome/87.0.4280.141 Safari/537.36" etag="-928DQ9q_YB35W4u6aDg" version="14.6.0" type="github">
  <diagram id="0A0KDYaRXFI6wfjH7v2v" name="Page-1">
    <mxGraphModel dx="1353" dy="833" grid="1" gridSize="10" guides="1" tooltips="1" connect="1" arrows="1" fold="1" page="1" pageScale="1" pageWidth="850" pageHeight="1100" math="0" shadow="0">
      <root>
        <mxCell id="0" />
        <mxCell id="1" parent="0" />
        <mxCell id="FfYNLRmwPogVAUPZ2nBc-4" value="&lt;b&gt;[MASK]&lt;/b&gt;" style="rounded=1;whiteSpace=wrap;html=1;strokeColor=#666666;fontColor=#333333;fillColor=#BFBFBF;" parent="1" vertex="1">
          <mxGeometry x="400" y="310" width="50" height="30" as="geometry" />
        </mxCell>
        <mxCell id="FfYNLRmwPogVAUPZ2nBc-35" style="edgeStyle=orthogonalEdgeStyle;rounded=0;orthogonalLoop=1;jettySize=auto;html=1;exitX=0.5;exitY=0;exitDx=0;exitDy=0;entryX=0.167;entryY=1;entryDx=0;entryDy=0;entryPerimeter=0;strokeWidth=1;" parent="1" source="FfYNLRmwPogVAUPZ2nBc-1" target="FfYNLRmwPogVAUPZ2nBc-26" edge="1">
          <mxGeometry relative="1" as="geometry" />
        </mxCell>
        <mxCell id="FfYNLRmwPogVAUPZ2nBc-1" value="&lt;b&gt;W2&lt;/b&gt;" style="rounded=1;whiteSpace=wrap;html=1;fillColor=#f8cecc;strokeColor=#b85450;" parent="1" vertex="1">
          <mxGeometry x="190" y="310" width="50" height="30" as="geometry" />
        </mxCell>
        <mxCell id="FfYNLRmwPogVAUPZ2nBc-36" style="edgeStyle=orthogonalEdgeStyle;rounded=0;orthogonalLoop=1;jettySize=auto;html=1;exitX=0.5;exitY=0;exitDx=0;exitDy=0;entryX=0.278;entryY=1;entryDx=0;entryDy=0;entryPerimeter=0;strokeWidth=1;" parent="1" source="FfYNLRmwPogVAUPZ2nBc-2" target="FfYNLRmwPogVAUPZ2nBc-26" edge="1">
          <mxGeometry relative="1" as="geometry" />
        </mxCell>
        <mxCell id="FfYNLRmwPogVAUPZ2nBc-2" value="&lt;b&gt;W3&lt;/b&gt;" style="rounded=1;whiteSpace=wrap;html=1;fillColor=#f8cecc;strokeColor=#b85450;" parent="1" vertex="1">
          <mxGeometry x="260" y="310" width="50" height="30" as="geometry" />
        </mxCell>
        <mxCell id="FfYNLRmwPogVAUPZ2nBc-37" style="edgeStyle=orthogonalEdgeStyle;rounded=0;orthogonalLoop=1;jettySize=auto;html=1;exitX=0.5;exitY=0;exitDx=0;exitDy=0;entryX=0.389;entryY=1;entryDx=0;entryDy=0;entryPerimeter=0;strokeWidth=1;" parent="1" source="FfYNLRmwPogVAUPZ2nBc-3" target="FfYNLRmwPogVAUPZ2nBc-26" edge="1">
          <mxGeometry relative="1" as="geometry" />
        </mxCell>
        <mxCell id="FfYNLRmwPogVAUPZ2nBc-3" value="&lt;b&gt;W1&lt;/b&gt;" style="rounded=1;whiteSpace=wrap;html=1;fillColor=#f8cecc;strokeColor=#b85450;" parent="1" vertex="1">
          <mxGeometry x="330" y="310" width="50" height="30" as="geometry" />
        </mxCell>
        <mxCell id="FfYNLRmwPogVAUPZ2nBc-40" style="edgeStyle=orthogonalEdgeStyle;rounded=0;orthogonalLoop=1;jettySize=auto;html=1;entryX=0.611;entryY=1;entryDx=0;entryDy=0;entryPerimeter=0;strokeWidth=1;" parent="1" source="FfYNLRmwPogVAUPZ2nBc-5" target="FfYNLRmwPogVAUPZ2nBc-26" edge="1">
          <mxGeometry relative="1" as="geometry" />
        </mxCell>
        <mxCell id="FfYNLRmwPogVAUPZ2nBc-5" value="&lt;b&gt;W5&lt;/b&gt;" style="rounded=1;whiteSpace=wrap;html=1;" parent="1" vertex="1">
          <mxGeometry x="470" y="310" width="50" height="30" as="geometry" />
        </mxCell>
        <mxCell id="FfYNLRmwPogVAUPZ2nBc-41" style="edgeStyle=orthogonalEdgeStyle;rounded=0;orthogonalLoop=1;jettySize=auto;html=1;entryX=0.722;entryY=1;entryDx=0;entryDy=0;entryPerimeter=0;strokeWidth=1;" parent="1" source="FfYNLRmwPogVAUPZ2nBc-6" target="FfYNLRmwPogVAUPZ2nBc-26" edge="1">
          <mxGeometry relative="1" as="geometry" />
        </mxCell>
        <mxCell id="FfYNLRmwPogVAUPZ2nBc-6" value="&lt;b&gt;W6&lt;/b&gt;" style="rounded=1;whiteSpace=wrap;html=1;" parent="1" vertex="1">
          <mxGeometry x="540" y="310" width="50" height="30" as="geometry" />
        </mxCell>
        <mxCell id="FfYNLRmwPogVAUPZ2nBc-44" style="edgeStyle=orthogonalEdgeStyle;rounded=0;orthogonalLoop=1;jettySize=auto;html=1;entryX=0.944;entryY=1;entryDx=0;entryDy=0;entryPerimeter=0;strokeWidth=1;" parent="1" source="FfYNLRmwPogVAUPZ2nBc-7" target="FfYNLRmwPogVAUPZ2nBc-26" edge="1">
          <mxGeometry relative="1" as="geometry" />
        </mxCell>
        <mxCell id="FfYNLRmwPogVAUPZ2nBc-7" value="&lt;b&gt;[SEP]&lt;/b&gt;" style="rounded=1;whiteSpace=wrap;html=1;" parent="1" vertex="1">
          <mxGeometry x="680" y="310" width="50" height="30" as="geometry" />
        </mxCell>
        <mxCell id="FfYNLRmwPogVAUPZ2nBc-38" style="edgeStyle=orthogonalEdgeStyle;rounded=0;orthogonalLoop=1;jettySize=auto;html=1;entryX=0.056;entryY=1;entryDx=0;entryDy=0;entryPerimeter=0;strokeWidth=1;" parent="1" source="FfYNLRmwPogVAUPZ2nBc-8" target="FfYNLRmwPogVAUPZ2nBc-26" edge="1">
          <mxGeometry relative="1" as="geometry" />
        </mxCell>
        <mxCell id="FfYNLRmwPogVAUPZ2nBc-8" value="&lt;b&gt;[CLS]&lt;/b&gt;" style="rounded=1;whiteSpace=wrap;html=1;" parent="1" vertex="1">
          <mxGeometry x="120" y="310" width="50" height="30" as="geometry" />
        </mxCell>
        <mxCell id="FfYNLRmwPogVAUPZ2nBc-43" style="edgeStyle=orthogonalEdgeStyle;rounded=0;orthogonalLoop=1;jettySize=auto;html=1;entryX=0.833;entryY=1;entryDx=0;entryDy=0;entryPerimeter=0;strokeWidth=1;" parent="1" source="FfYNLRmwPogVAUPZ2nBc-9" target="FfYNLRmwPogVAUPZ2nBc-26" edge="1">
          <mxGeometry relative="1" as="geometry" />
        </mxCell>
        <mxCell id="FfYNLRmwPogVAUPZ2nBc-9" value="&lt;b&gt;[MASK]&lt;/b&gt;" style="rounded=1;whiteSpace=wrap;html=1;strokeColor=#666666;fontColor=#333333;fillColor=#BFBFBF;" parent="1" vertex="1">
          <mxGeometry x="610" y="310" width="50" height="30" as="geometry" />
        </mxCell>
        <mxCell id="FfYNLRmwPogVAUPZ2nBc-13" style="edgeStyle=orthogonalEdgeStyle;rounded=0;orthogonalLoop=1;jettySize=auto;html=1;entryX=0.5;entryY=1;entryDx=0;entryDy=0;" parent="1" source="FfYNLRmwPogVAUPZ2nBc-10" target="FfYNLRmwPogVAUPZ2nBc-1" edge="1">
          <mxGeometry relative="1" as="geometry" />
        </mxCell>
        <mxCell id="FfYNLRmwPogVAUPZ2nBc-10" value="&lt;b&gt;W1&lt;/b&gt;" style="text;html=1;align=center;verticalAlign=middle;resizable=0;points=[];autosize=1;strokeColor=none;" parent="1" vertex="1">
          <mxGeometry x="200" y="370" width="30" height="20" as="geometry" />
        </mxCell>
        <mxCell id="FfYNLRmwPogVAUPZ2nBc-15" style="edgeStyle=orthogonalEdgeStyle;rounded=0;orthogonalLoop=1;jettySize=auto;html=1;entryX=0.5;entryY=1;entryDx=0;entryDy=0;" parent="1" source="FfYNLRmwPogVAUPZ2nBc-14" target="FfYNLRmwPogVAUPZ2nBc-2" edge="1">
          <mxGeometry relative="1" as="geometry" />
        </mxCell>
        <mxCell id="FfYNLRmwPogVAUPZ2nBc-14" value="&lt;b&gt;W2&lt;/b&gt;" style="text;html=1;align=center;verticalAlign=middle;resizable=0;points=[];autosize=1;strokeColor=none;" parent="1" vertex="1">
          <mxGeometry x="270" y="370" width="30" height="20" as="geometry" />
        </mxCell>
        <mxCell id="FfYNLRmwPogVAUPZ2nBc-17" style="edgeStyle=orthogonalEdgeStyle;rounded=0;orthogonalLoop=1;jettySize=auto;html=1;entryX=0.5;entryY=1;entryDx=0;entryDy=0;" parent="1" source="FfYNLRmwPogVAUPZ2nBc-16" target="FfYNLRmwPogVAUPZ2nBc-3" edge="1">
          <mxGeometry relative="1" as="geometry" />
        </mxCell>
        <mxCell id="FfYNLRmwPogVAUPZ2nBc-16" value="&lt;b&gt;W3&lt;/b&gt;" style="text;html=1;align=center;verticalAlign=middle;resizable=0;points=[];autosize=1;strokeColor=none;" parent="1" vertex="1">
          <mxGeometry x="340" y="370" width="30" height="20" as="geometry" />
        </mxCell>
        <mxCell id="FfYNLRmwPogVAUPZ2nBc-19" style="edgeStyle=orthogonalEdgeStyle;rounded=0;orthogonalLoop=1;jettySize=auto;html=1;entryX=0.5;entryY=1;entryDx=0;entryDy=0;" parent="1" source="FfYNLRmwPogVAUPZ2nBc-18" target="FfYNLRmwPogVAUPZ2nBc-4" edge="1">
          <mxGeometry relative="1" as="geometry" />
        </mxCell>
        <mxCell id="FfYNLRmwPogVAUPZ2nBc-18" value="&lt;b&gt;W4&lt;/b&gt;" style="text;html=1;align=center;verticalAlign=middle;resizable=0;points=[];autosize=1;strokeColor=none;" parent="1" vertex="1">
          <mxGeometry x="410" y="370" width="30" height="20" as="geometry" />
        </mxCell>
        <mxCell id="FfYNLRmwPogVAUPZ2nBc-21" style="edgeStyle=orthogonalEdgeStyle;rounded=0;orthogonalLoop=1;jettySize=auto;html=1;entryX=0.5;entryY=1;entryDx=0;entryDy=0;" parent="1" source="FfYNLRmwPogVAUPZ2nBc-20" target="FfYNLRmwPogVAUPZ2nBc-5" edge="1">
          <mxGeometry relative="1" as="geometry" />
        </mxCell>
        <mxCell id="FfYNLRmwPogVAUPZ2nBc-20" value="&lt;b&gt;W5&lt;/b&gt;" style="text;html=1;align=center;verticalAlign=middle;resizable=0;points=[];autosize=1;strokeColor=none;" parent="1" vertex="1">
          <mxGeometry x="480" y="370" width="30" height="20" as="geometry" />
        </mxCell>
        <mxCell id="FfYNLRmwPogVAUPZ2nBc-23" style="edgeStyle=orthogonalEdgeStyle;rounded=0;orthogonalLoop=1;jettySize=auto;html=1;entryX=0.5;entryY=1;entryDx=0;entryDy=0;" parent="1" source="FfYNLRmwPogVAUPZ2nBc-22" target="FfYNLRmwPogVAUPZ2nBc-6" edge="1">
          <mxGeometry relative="1" as="geometry" />
        </mxCell>
        <mxCell id="FfYNLRmwPogVAUPZ2nBc-22" value="&lt;b&gt;W6&lt;/b&gt;" style="text;html=1;align=center;verticalAlign=middle;resizable=0;points=[];autosize=1;strokeColor=none;" parent="1" vertex="1">
          <mxGeometry x="550" y="370" width="30" height="20" as="geometry" />
        </mxCell>
        <mxCell id="FfYNLRmwPogVAUPZ2nBc-25" style="edgeStyle=orthogonalEdgeStyle;rounded=0;orthogonalLoop=1;jettySize=auto;html=1;entryX=0.5;entryY=1;entryDx=0;entryDy=0;" parent="1" source="FfYNLRmwPogVAUPZ2nBc-24" target="FfYNLRmwPogVAUPZ2nBc-9" edge="1">
          <mxGeometry relative="1" as="geometry" />
        </mxCell>
        <mxCell id="FfYNLRmwPogVAUPZ2nBc-24" value="&lt;b&gt;W7&lt;/b&gt;" style="text;html=1;align=center;verticalAlign=middle;resizable=0;points=[];autosize=1;strokeColor=none;" parent="1" vertex="1">
          <mxGeometry x="620" y="370" width="30" height="20" as="geometry" />
        </mxCell>
        <mxCell id="FfYNLRmwPogVAUPZ2nBc-26" value="&lt;b&gt;Transformer Encoder&lt;/b&gt;" style="rounded=1;whiteSpace=wrap;html=1;fillColor=#fff2cc;strokeColor=#d6b656;" parent="1" vertex="1">
          <mxGeometry x="110" y="210" width="630" height="60" as="geometry" />
        </mxCell>
        <mxCell id="FfYNLRmwPogVAUPZ2nBc-45" value="&lt;b&gt;W1&lt;/b&gt;" style="rounded=1;whiteSpace=wrap;html=1;fillColor=#d5e8d4;strokeColor=#82b366;" parent="1" vertex="1">
          <mxGeometry x="190" y="150" width="50" height="30" as="geometry" />
        </mxCell>
        <mxCell id="FfYNLRmwPogVAUPZ2nBc-46" value="&lt;b&gt;W2&lt;/b&gt;" style="rounded=1;whiteSpace=wrap;html=1;fillColor=#d5e8d4;strokeColor=#82b366;" parent="1" vertex="1">
          <mxGeometry x="260" y="150" width="50" height="30" as="geometry" />
        </mxCell>
        <mxCell id="FfYNLRmwPogVAUPZ2nBc-47" value="&lt;b&gt;W3&lt;/b&gt;" style="rounded=1;whiteSpace=wrap;html=1;fillColor=#d5e8d4;strokeColor=#82b366;" parent="1" vertex="1">
          <mxGeometry x="330" y="150" width="50" height="30" as="geometry" />
        </mxCell>
        <mxCell id="FfYNLRmwPogVAUPZ2nBc-48" value="&lt;b&gt;W4&lt;/b&gt;" style="rounded=1;whiteSpace=wrap;html=1;fillColor=#d5e8d4;strokeColor=#82b366;" parent="1" vertex="1">
          <mxGeometry x="400" y="150" width="50" height="30" as="geometry" />
        </mxCell>
        <mxCell id="FfYNLRmwPogVAUPZ2nBc-49" value="&lt;b&gt;W5&lt;/b&gt;" style="rounded=1;whiteSpace=wrap;html=1;" parent="1" vertex="1">
          <mxGeometry x="470" y="150" width="50" height="30" as="geometry" />
        </mxCell>
        <mxCell id="FfYNLRmwPogVAUPZ2nBc-50" value="&lt;b&gt;W6&lt;/b&gt;" style="rounded=1;whiteSpace=wrap;html=1;" parent="1" vertex="1">
          <mxGeometry x="540" y="150" width="50" height="30" as="geometry" />
        </mxCell>
        <mxCell id="FfYNLRmwPogVAUPZ2nBc-51" value="&lt;b&gt;[SEP]&lt;/b&gt;" style="rounded=1;whiteSpace=wrap;html=1;" parent="1" vertex="1">
          <mxGeometry x="680" y="150" width="50" height="30" as="geometry" />
        </mxCell>
        <mxCell id="FfYNLRmwPogVAUPZ2nBc-52" value="&lt;b&gt;[CLS]&lt;/b&gt;" style="rounded=1;whiteSpace=wrap;html=1;" parent="1" vertex="1">
          <mxGeometry x="120" y="150" width="50" height="30" as="geometry" />
        </mxCell>
        <mxCell id="FfYNLRmwPogVAUPZ2nBc-53" value="&lt;b&gt;W7&lt;/b&gt;" style="rounded=1;whiteSpace=wrap;html=1;fillColor=#d5e8d4;strokeColor=#82b366;" parent="1" vertex="1">
          <mxGeometry x="610" y="150" width="50" height="30" as="geometry" />
        </mxCell>
        <mxCell id="FfYNLRmwPogVAUPZ2nBc-55" value="" style="endArrow=classic;html=1;strokeWidth=1;" parent="1" edge="1">
          <mxGeometry width="50" height="50" relative="1" as="geometry">
            <mxPoint x="144.57999999999998" y="210" as="sourcePoint" />
            <mxPoint x="144.57999999999998" y="180" as="targetPoint" />
          </mxGeometry>
        </mxCell>
        <mxCell id="FfYNLRmwPogVAUPZ2nBc-56" value="" style="endArrow=classic;html=1;strokeWidth=1;" parent="1" edge="1">
          <mxGeometry width="50" height="50" relative="1" as="geometry">
            <mxPoint x="214.57999999999993" y="209.9999999999999" as="sourcePoint" />
            <mxPoint x="214.57999999999993" y="180" as="targetPoint" />
          </mxGeometry>
        </mxCell>
        <mxCell id="FfYNLRmwPogVAUPZ2nBc-57" value="" style="endArrow=classic;html=1;strokeWidth=1;" parent="1" edge="1">
          <mxGeometry width="50" height="50" relative="1" as="geometry">
            <mxPoint x="284.5799999999999" y="209.9999999999999" as="sourcePoint" />
            <mxPoint x="284.5799999999999" y="180" as="targetPoint" />
          </mxGeometry>
        </mxCell>
        <mxCell id="FfYNLRmwPogVAUPZ2nBc-58" value="" style="endArrow=classic;html=1;strokeWidth=1;" parent="1" edge="1">
          <mxGeometry width="50" height="50" relative="1" as="geometry">
            <mxPoint x="354.5799999999999" y="209.9999999999999" as="sourcePoint" />
            <mxPoint x="354.5799999999999" y="180" as="targetPoint" />
          </mxGeometry>
        </mxCell>
        <mxCell id="FfYNLRmwPogVAUPZ2nBc-59" value="" style="endArrow=classic;html=1;strokeWidth=1;" parent="1" edge="1">
          <mxGeometry width="50" height="50" relative="1" as="geometry">
            <mxPoint x="423.9999999999999" y="209.9999999999999" as="sourcePoint" />
            <mxPoint x="423.9999999999999" y="180" as="targetPoint" />
          </mxGeometry>
        </mxCell>
        <mxCell id="FfYNLRmwPogVAUPZ2nBc-60" value="" style="endArrow=classic;html=1;strokeWidth=1;" parent="1" edge="1">
          <mxGeometry width="50" height="50" relative="1" as="geometry">
            <mxPoint x="494.5799999999999" y="209.9999999999999" as="sourcePoint" />
            <mxPoint x="494.5799999999999" y="180" as="targetPoint" />
          </mxGeometry>
        </mxCell>
        <mxCell id="FfYNLRmwPogVAUPZ2nBc-61" value="" style="endArrow=classic;html=1;strokeWidth=1;" parent="1" edge="1">
          <mxGeometry width="50" height="50" relative="1" as="geometry">
            <mxPoint x="564.5799999999999" y="209.9999999999999" as="sourcePoint" />
            <mxPoint x="564.5799999999999" y="180" as="targetPoint" />
          </mxGeometry>
        </mxCell>
        <mxCell id="FfYNLRmwPogVAUPZ2nBc-62" value="" style="endArrow=classic;html=1;strokeWidth=1;" parent="1" edge="1">
          <mxGeometry width="50" height="50" relative="1" as="geometry">
            <mxPoint x="634.5799999999999" y="209.9999999999999" as="sourcePoint" />
            <mxPoint x="634.5799999999999" y="180" as="targetPoint" />
          </mxGeometry>
        </mxCell>
        <mxCell id="FfYNLRmwPogVAUPZ2nBc-63" value="" style="endArrow=classic;html=1;strokeWidth=1;" parent="1" edge="1">
          <mxGeometry width="50" height="50" relative="1" as="geometry">
            <mxPoint x="704.5799999999999" y="209.9999999999999" as="sourcePoint" />
            <mxPoint x="704.5799999999999" y="180" as="targetPoint" />
          </mxGeometry>
        </mxCell>
        <mxCell id="o9yz7eKRt4yzKUCIVnMz-1" value="" style="endArrow=none;html=1;strokeWidth=3;" edge="1" parent="1" target="FfYNLRmwPogVAUPZ2nBc-28">
          <mxGeometry width="50" height="50" relative="1" as="geometry">
            <mxPoint x="105" y="290" as="sourcePoint" />
            <mxPoint x="745" y="290" as="targetPoint" />
          </mxGeometry>
        </mxCell>
        <mxCell id="FfYNLRmwPogVAUPZ2nBc-28" value="&lt;b&gt;Embedding&lt;/b&gt;" style="text;html=1;align=center;verticalAlign=middle;resizable=0;points=[];autosize=1;strokeColor=none;" parent="1" vertex="1">
          <mxGeometry x="385" y="280" width="80" height="20" as="geometry" />
        </mxCell>
        <mxCell id="FfYNLRmwPogVAUPZ2nBc-27" value="" style="endArrow=none;html=1;strokeWidth=3;startArrow=none;" parent="1" edge="1" source="FfYNLRmwPogVAUPZ2nBc-28">
          <mxGeometry width="50" height="50" relative="1" as="geometry">
            <mxPoint x="105" y="290" as="sourcePoint" />
            <mxPoint x="745" y="290" as="targetPoint" />
          </mxGeometry>
        </mxCell>
        <mxCell id="o9yz7eKRt4yzKUCIVnMz-5" value="" style="endArrow=none;html=1;" edge="1" parent="1" target="FfYNLRmwPogVAUPZ2nBc-28">
          <mxGeometry width="50" height="50" relative="1" as="geometry">
            <mxPoint x="425" y="310" as="sourcePoint" />
            <mxPoint x="425" y="300" as="targetPoint" />
          </mxGeometry>
        </mxCell>
        <mxCell id="o9yz7eKRt4yzKUCIVnMz-6" value="" style="endArrow=classic;html=1;" edge="1" parent="1">
          <mxGeometry width="50" height="50" relative="1" as="geometry">
            <mxPoint x="425" y="280" as="sourcePoint" />
            <mxPoint x="425" y="270" as="targetPoint" />
            <Array as="points" />
          </mxGeometry>
        </mxCell>
      </root>
    </mxGraphModel>
  </diagram>
</mxfile>
